<?xml version="1.0" standalone="no"?>
<!DOCTYPE svg PUBLIC "-//W3C//DTD SVG 1.1//EN" "http://www.w3.org/Graphics/SVG/1.1/DTD/svg11.dtd" >
<svg xmlns="http://www.w3.org/2000/svg">
<metadata>Generated by IcoMoon</metadata>
<defs>
<font id="icomoon" horiz-adv-x="1024">
<font-face units-per-em="1024" ascent="960" descent="-64" />
<missing-glyph horiz-adv-x="1024" />
<glyph unicode="&#x20;" horiz-adv-x="512" d="" />
<glyph unicode="&#xe900;" glyph-name="aws" d="M325.973 495.787c0-10.667 0.853-19.2 2.987-26.453 2.133-5.12 5.12-11.947 8.96-19.627 1.707-1.707 2.133-4.267 2.133-6.4 0-2.987-1.707-5.547-5.547-8.533l-17.92-11.947c-2.56-1.707-5.12-2.56-7.253-2.56-2.987 0-5.547 1.707-8.533 4.267-3.84 4.267-7.253 8.533-10.24 13.227-2.56 4.693-5.547 10.24-8.533 16.64-22.187-26.027-49.92-39.253-83.627-39.253-23.893 0-42.667 6.827-56.747 20.48-13.653 13.653-20.907 32-20.907 55.040 0 23.467 8.533 42.667 25.6 58.027 17.493 14.507 40.533 22.187 69.547 22.187 9.813 0 18.773-0.853 30.293-2.56 9.813-1.28 21.333-3.413 32.427-5.973v20.48c0 21.76-4.267 35.84-13.227 45.653-9.387 8.96-24.32 12.8-46.080 12.8-10.24 0-20.48-1.28-30.72-3.413-10.667-2.56-20.907-5.547-30.72-9.813-4.693-1.707-8.533-2.987-9.813-3.413-2.133-0.853-3.413-0.853-4.693-0.853-3.84 0-5.973 2.56-5.973 8.533v14.080c0 4.267 0.427 7.68 2.133 9.813q1.92 3.2 7.68 5.12c10.24 5.973 21.76 10.24 35.84 13.653 12.954 3.525 27.827 5.551 43.173 5.551 0.422 0 0.844-0.002 1.265-0.005h-0.065q50.56 0 74.24-23.040c15.787-15.36 23.467-38.827 23.467-69.973v-91.733zM210.773 452.267c9.387 0 18.773 1.707 29.013 5.12s19.2 9.813 26.88 18.347c4.693 5.547 8.107 11.52 10.667 18.347 0 6.827 2.133 14.933 2.133 24.747v11.52c-8.533 2.987-17.067 2.987-26.453 5.12-7.69 0.895-16.863 1.51-26.141 1.702l-0.313 0.005c-19.2 0-32.853-3.84-42.24-11.52s-13.653-18.347-13.653-32.427c0-13.653 2.987-23.893 10.24-30.293 6.827-7.253 16.64-10.667 29.867-10.667zM438.613 421.974c-0.228-0.007-0.496-0.011-0.764-0.011-4.069 0-7.916 0.949-11.332 2.638l0.15-0.067c-1.28 2.133-3.413 5.973-5.12 11.093l-66.56 219.307c-1.707 6.4-2.56 9.387-2.56 11.52 0 4.693 2.133 7.253 6.827 7.253h27.733c5.547 0 9.387-0.853 11.093-2.987 2.56-1.707 4.267-5.547 5.973-11.093l47.36-187.733 44.373 187.733c1.28 5.547 2.987 9.387 5.547 11.093 2.133 1.707 5.973 2.987 10.667 2.987h23.467c5.12 0 8.96-0.853 11.093-2.987 2.133-1.707 4.267-5.547 5.547-11.093l45.227-190.293 48.64 190.293c1.707 5.547 3.84 9.387 5.547 11.093 2.56 1.707 5.973 2.987 11.093 2.987h26.453c4.693 0 7.253-2.56 7.253-7.253 0-1.28-0.427-2.987-0.853-5.12 0 0-0.853-3.413-1.707-6.4l-68.693-219.307c-1.707-5.973-3.413-8.96-6.4-11.093-1.707-1.707-5.547-2.987-10.24-2.987h-24.32c-5.547 0-8.107 0.853-11.52 2.987-2.774 2.936-4.635 6.762-5.112 11.006l-0.008 0.087-43.947 183.040-43.947-182.613q-1.92-8.32-5.12-11.52c-2.948-1.637-6.465-2.6-10.207-2.6-0.462 0-0.92 0.015-1.375 0.044l0.062-0.003zM803.413 414.294c-14.080 0-29.867 1.707-43.947 5.12s-25.173 7.253-32.427 11.093c-3.75 1.831-6.796 4.603-8.907 8.015l-0.053 0.091c-1.078 2.174-1.708 4.735-1.708 7.443 0 0.083 0.001 0.167 0.002 0.25v-0.013 14.507c0 5.973 2.133 8.533 6.4 8.533h5.12c1.707 0 4.267-2.133 7.253-3.413 9.387-4.267 20.053-7.68 31.147-9.813 11.52-2.133 23.040-3.413 33.707-3.413 17.92 0 32 2.987 41.387 9.387 9.813 7.253 14.933 15.36 14.933 26.88 0 8.107-2.987 14.507-7.68 20.053-5.12 5.12-14.933 10.24-28.587 14.507l-41.387 12.8c-20.48 6.827-35.84 16.213-45.227 29.013-8.782 11.272-14.080 25.634-14.080 41.233 0 0.054 0 0.108 0 0.162v-0.008c0 11.947 2.56 22.187 7.68 31.147 5.12 9.387 11.947 17.067 19.627 23.467 9.387 6.4 18.773 11.093 30.293 14.507q16.64 5.12 35.84 5.12 8.96 0 19.2-1.28c5.973-0.853 11.947-2.133 17.92-2.987 5.973-1.707 11.093-2.987 16.213-4.693s8.533-3.413 11.947-5.12c3.84-2.133 6.827-4.267 8.533-6.827s2.56-5.547 2.56-9.387v-13.653q0-8.96-6.4-8.96c-2.133 0-5.973 1.28-11.093 3.413-15.787 7.253-34.133 11.093-54.187 11.093-16.213 0-28.16-2.56-37.973-8.107-8.533-5.12-13.227-13.653-13.227-25.173 0-8.107 2.987-14.933 8.533-20.053 5.547-5.547 16.213-10.667 31.147-15.787l40.533-12.8c20.48-5.973 34.987-15.36 43.947-27.307q12.8-17.28 12.8-39.68c0-11.947-2.56-23.040-7.253-32.853-5.12-9.387-11.947-17.92-21.333-24.747-8.107-7.253-18.773-12.373-30.72-16.213s-26.453-5.547-40.533-5.547zM856.747 276.054c-93.44-68.693-229.12-105.387-344.747-105.387-164.267 0-311.467 60.587-422.827 160.853-8.96 8.107-0.853 18.773 9.813 12.373 120.32-69.547 268.373-111.787 421.973-111.787 103.68 0 217.6 21.333 322.133 66.56 15.787 6.4 29.013-11.093 13.653-22.613zM896 320c-12.373 15.787-79.36 7.68-109.653 4.267-8.96-1.28-10.24 6.827-2.133 12.8 53.333 37.12 141.227 25.6 151.040 14.080 10.24-12.8-2.56-100.693-52.48-142.507-8.107-6.4-15.36-2.987-11.947 4.693 11.52 29.013 36.693 92.16 25.173 106.667z" />
<glyph unicode="&#xe901;" glyph-name="vue-fill" d="M815.531 853.334h-175.531l-128-209.067-109.696 209.067h-402.304l512-896 512 896zM128 778.667h124.331l259.669-462.933 259.669 462.933h124.331l-384-672z" />
<glyph unicode="&#xe902;" glyph-name="star-solid" d="M548.907 810.838c-7.524 12.801-21.228 21.258-36.907 21.258s-29.382-8.457-36.798-21.058l-0.109-0.2-115.797-199.595c-8.078-13.723-21.773-23.401-37.844-25.903l-0.3-0.038-217.045-32.768c-36.437-5.547-49.237-51.541-20.821-75.093l161.664-133.888c14.933-12.416 21.973-32 18.347-51.072l-42.283-222.080c-0.479-2.399-0.753-5.158-0.753-7.98 0-23.564 19.103-42.667 42.667-42.667 7.266 0 14.108 1.816 20.096 5.020l-0.229-0.112 204.373 107.605c7.199 3.864 15.75 6.134 24.832 6.134s17.633-2.27 25.118-6.273l-0.286 0.14 204.373-107.605c5.759-3.092 12.601-4.908 19.868-4.908 23.564 0 42.667 19.103 42.667 42.667 0 2.822-0.274 5.581-0.797 8.25l0.044-0.27-42.283 222.080c-0.603 3.011-0.948 6.471-0.948 10.013 0 16.476 7.471 31.206 19.209 40.989l0.086 0.070 161.707 133.931c28.373 23.467 15.573 69.547-20.907 75.051l-216.96 32.768c-16.387 2.528-30.101 12.208-38.051 25.692l-0.136 0.249z" />
<glyph unicode="&#xe903;" glyph-name="mail-outline" d="M170.667 85.334q-35.2 0-60.245 25.045t-25.088 60.288v512q0 35.2 25.088 60.245t60.245 25.088h682.667q35.2 0 60.288-25.088t25.045-60.245v-512q0-35.2-25.045-60.288t-60.288-25.045zM512 384l-341.333 213.333v-426.667h682.667v426.667zM512 469.334l341.333 213.333h-682.667zM170.667 597.334v85.333-512z" />
<glyph unicode="&#xe904;" glyph-name="internet" d="M76.8 426.667c0-240.354 194.846-435.2 435.2-435.2s435.2 194.846 435.2 435.2v0c0 240.354-194.846 435.2-435.2 435.2s-435.2-194.846-435.2-435.2v0zM896 426.667c0-212.077-171.923-384-384-384s-384 171.923-384 384v0c0 212.077 171.923 384 384 384s384-171.923 384-384v0zM332.8 426.667c0-225.075 73.83-409.6 179.2-409.6s179.2 184.525 179.2 409.6-73.83 409.6-179.2 409.6-179.2-184.525-179.2-409.6zM640 426.667c0-199.117-63.744-358.4-128-358.4s-128 159.283-128 358.4 63.744 358.4 128 358.4 128-159.283 128-358.4zM191.232 666.693l34.304 37.99q8.192-7.373 17.562-14.387c67.482-50.586 173.978-81.408 290.048-81.408 98.97 0 191.334 22.374 258.816 60.928 16.628 9.491 30.981 19.602 44.289 30.907l-0.411-0.34 33.28-38.912q-22.938-19.61-51.712-36.045c-75.622-43.264-176.742-67.738-284.262-67.738-126.464 0-243.814 33.946-320.768 91.648-7.9 5.956-14.787 11.659-21.413 17.646l0.267-0.238zM191.232 186.027l34.304-37.888q8.192 7.424 17.562 14.336c67.482 50.586 173.978 81.408 290.048 81.408 98.97 0 191.334-22.323 258.816-60.928q24.678-14.182 43.878-30.515l33.28 38.912c-15.201 12.93-32.116 24.853-50.069 35.174l-1.643 0.87c-75.622 43.213-176.742 67.686-284.262 67.686-126.464 0-243.814-33.946-320.768-91.597q-11.264-8.448-21.146-17.408zM102.4 401.067v51.2h819.2v-51.2z" />
<glyph unicode="&#xe905;" glyph-name="tiktok" d="M682.667 586.88v-309.547c-0.035-153.14-124.188-277.272-277.333-277.272-153.167 0-277.333 124.166-277.333 277.333s124.166 277.333 277.333 277.333c22.707 0 44.776-2.729 65.898-7.877l-1.898 0.391v-134.955c-18.732 9.094-40.745 14.409-64 14.409-82.475 0-149.333-66.859-149.333-149.333s66.859-149.333 149.333-149.333c82.464 0 149.316 66.841 149.333 149.301v576.002h128c0-117.821 95.513-213.333 213.333-213.333v0-128c-0.134 0-0.292 0-0.449 0-80.878 0-155.16 28.235-213.53 75.385l0.646-0.505z" />
<glyph unicode="&#xe906;" glyph-name="twitter-x" d="M754.645 807.979l-213.163-243.669-184.32 243.669h-267.051l319.019-417.109-302.336-345.557h129.451l233.344 266.667 203.947-266.667h260.352l-332.544 439.637 282.667 323.029zM709.248 122.752l-468.011 611.883h76.928l462.763-611.84z" />
<glyph unicode="&#xe907;" glyph-name="close" d="M810.667 665.174l-60.16 60.16-238.507-238.507-238.507 238.507-60.16-60.16 238.507-238.507-238.507-238.507 60.16-60.16 238.507 238.507 238.507-238.507 60.16 60.16-238.507 238.507z" />
<glyph unicode="&#xe908;" glyph-name="github" d="M512 853.334c-235.641 0-426.667-191.025-426.667-426.667v0c0-188.587 122.453-348.587 291.84-405.333 21.333-3.413 28.16 9.813 28.16 21.333v72.107c-118.187-25.6-143.36 57.173-143.36 57.173-19.627 49.493-47.36 62.72-47.36 62.72-38.827 26.453 2.987 25.6 2.987 25.6 42.667-2.987 65.28-43.947 65.28-43.947 37.12-64.853 99.84-45.653 124.16-35.413 3.84 27.733 14.933 46.507 26.88 57.173-94.72 10.667-194.133 47.36-194.133 209.92 0 47.36 16.213 85.333 43.947 115.627-4.267 10.667-19.2 55.040 4.267 112.64 0 0 35.84 11.52 117.333-43.52 33.707 9.387 70.4 14.080 106.667 14.080s72.96-4.693 106.667-14.080c81.493 55.040 117.333 43.52 117.333 43.52 23.467-57.6 8.533-101.973 4.267-112.64 27.733-30.293 43.947-68.267 43.947-115.627 0-162.987-99.84-198.827-194.987-209.493 15.36-13.227 29.44-39.253 29.44-78.933v-116.907c0-11.52 6.827-25.173 28.587-21.333 169.387 57.173 291.413 216.747 291.413 405.333 0 235.641-191.025 426.667-426.667 426.667v0z" />
<glyph unicode="&#xe909;" glyph-name="mail-solid" d="M853.333 597.334l-341.333-213.333-341.333 213.333v85.333l341.333-213.333 341.333 213.333zM853.333 768h-682.667c-47.36 0-85.333-37.973-85.333-85.333v-512c0-47.128 38.205-85.333 85.333-85.333v0h682.667c47.128 0 85.333 38.205 85.333 85.333v0 512c0 47.128-38.205 85.333-85.333 85.333v0z" />
<glyph unicode="&#xe90a;" glyph-name="instagram" d="M332.8 853.334h358.4c136.533 0 247.467-110.933 247.467-247.467v-358.4c0-136.672-110.795-247.467-247.467-247.467v0h-358.4c-136.533 0-247.467 110.933-247.467 247.467v358.4c0 136.672 110.795 247.467 247.467 247.467v0zM324.267 768c-84.831 0-153.6-68.769-153.6-153.6v0-375.467c0-84.907 68.693-153.6 153.6-153.6h375.467c84.831 0 153.6 68.769 153.6 153.6v0 375.467c0 84.907-68.693 153.6-153.6 153.6zM736 704c29.455 0 53.333-23.878 53.333-53.333v0c0-29.455-23.878-53.333-53.333-53.333v0c-29.455 0-53.333 23.878-53.333 53.333v0c0 29.455 23.878 53.333 53.333 53.333v0zM512 640c117.821 0 213.333-95.513 213.333-213.333v0c0-117.821-95.513-213.333-213.333-213.333v0c-117.821 0-213.333 95.513-213.333 213.333v0c0 117.821 95.513 213.333 213.333 213.333v0zM512 554.667c-70.692 0-128-57.308-128-128v0c0-70.692 57.308-128 128-128v0c70.692 0 128 57.308 128 128v0c0 70.692-57.308 128-128 128v0z" />
<glyph unicode="&#xe90b;" glyph-name="spinner" d="M512-85.333c-136.768 0-265.344 53.248-362.048 149.952s-149.952 225.28-149.952 362.048c0 96.832 27.2 191.104 78.592 272.704 50.354 79.178 119.543 142.252 201.445 183.937l2.907 1.343 43.008-85.824c-68.908-35.059-125.144-86.33-165.139-148.973l-1.005-1.683c-40.034-62.783-63.808-139.314-63.808-221.397 0-0.038 0-0.075 0-0.113v0.006c0-229.376 186.624-416 416-416s416 186.624 416 416c0 78.72-22.080 155.264-63.808 221.504-40.926 64.39-97.183 115.68-163.781 149.565l-2.363 1.091 43.008 85.824c84.809-43.028 153.998-106.102 203.118-183.208l1.234-2.072c49.31-77.292 78.592-171.518 78.592-272.583 0-0.042 0-0.085 0-0.127v0.006c0-136.768-53.248-265.344-149.952-362.048s-225.28-149.952-362.048-149.952z" />
<glyph unicode="&#xe90c;" glyph-name="laravel" d="M925.867 660.054c0.427-0.853 0.427-2.133 0.427-3.413v-183.040c0-4.267-2.56-9.387-6.4-11.52l-154.027-88.747v-175.36c0-4.693-2.133-8.96-6.4-11.52l-320.853-184.747c-0.853-0.427-1.707-1.707-2.56-1.707h-9.387s0 1.28-1.707 1.707l-320.853 184.747c-3.856 2.446-6.383 6.686-6.4 11.517v548.696c0 2.133 0 3.413 0.427 4.267 0 0.427 0.427 0.853 0.427 1.28 0 0.853 0.427 1.28 0.853 2.133 0 0.427 0.427 0.853 0.853 1.28l2.56 2.56c0.427 0.427 0.853 0.853 1.28 0.853l160.427 92.587c4.267 1.707 9.387 1.707 12.8 0l161.28-92.587c0.427-0.427 0.853-0.427 1.28-0.853l2.56-2.56c0.427-0.427 0.853-0.853 0.853-1.28 0.427-0.853 0.853-1.28 0.853-2.133 0-0.427 0.427-0.853 0.427-1.28 0.427-1.28 0.427-2.133 0.427-4.267v-341.333l133.973 75.947v175.36c0 1.28 0 2.56 0.427 3.413l0.427 1.28s0.427 1.28 0.853 2.133c0 0.427 0.427 0.853 0.853 1.28l2.56 2.56c0.427 0.427 0.853 0.853 1.28 0.853l161.28 92.587c3.413 2.56 8.533 2.56 12.8 0l160.427-92.587c0.427 0 0.853-0.427 1.28-0.853l2.56-2.56c0.427-0.427 0.427-0.853 0.853-1.28 0.427-0.853 0.427-2.133 0.853-2.133s0.427 0 0.427-1.28zM899.84 481.28v152.32l-133.973-76.8v-151.467zM739.413 205.654v152.747l-294.4-168.107v-154.027zM124.16 725.334v-519.68l294.4-169.387v154.027l-153.6 87.040h-0.427c-0.427 0-0.853 0-1.28 1.28-0.427 0-0.853 0.427-1.28 0.853l-1.28 1.28c-0.427 0.427-0.427 0.853-0.853 1.28-0.427 0.853-0.427 1.28-0.853 1.707 0 0.853-0.427 1.28-0.427 1.707-0.427 0.427-0.427 1.28-0.427 1.707v360.533zM271.36 824.32l-133.547-77.653 133.547-75.947 133.973 75.947zM418.56 389.12v336.213l-133.973-77.653v-335.787zM752.64 733.867l-133.973-77.227 133.973-76.8 133.547 76.8zM739.413 556.8l-133.973 76.8v-152.32l133.973-75.947zM431.787 213.334l293.547 168.107-133.12 76.8-293.547-169.387z" />
<glyph unicode="&#xe90d;" glyph-name="mysql" d="M871.339 198.955c-46.421 1.28-82.432-3.456-112.64-16.171-8.661-3.499-22.613-3.499-23.765-14.421 4.693-4.608 5.205-12.117 9.301-18.475 6.955-11.52 19.157-27.093 30.165-35.157l37.12-26.539c22.656-13.867 48.213-21.931 70.272-35.755 12.757-8.107 25.515-18.475 38.315-27.136 6.485-4.608 10.411-12.117 18.56-15.019v1.749c-4.053 5.205-5.248 12.672-9.259 18.475l-17.451 16.725c-17.182 22.492-37.101 41.733-59.531 57.671l-0.843 0.569c-18.56 12.715-59.179 29.995-66.731 51.328l-1.152 1.28c12.757 1.28 27.861 5.803 40.064 9.259 19.755 5.163 37.717 4.053 58.027 9.216l27.861 8.107v5.12c-10.453 10.411-18.005 24.277-29.013 34.048-28.401 24.787-59.676 48.165-92.655 69.098l-3.131 1.857c-18.005 11.52-41.216 19.072-60.373 28.843-6.997 3.456-18.56 5.205-22.613 10.965-10.496 12.672-16.256 29.44-23.808 44.416l-47.616 100.395c-10.453 22.485-16.853 44.971-29.611 65.707-59.733 98.133-124.8 157.525-224.64 215.808-21.461 12.117-46.976 17.323-74.155 23.637l-43.52 2.347c-9.301 4.011-18.603 14.976-26.709 20.181-33.067 20.779-118.4 65.749-142.805 6.443-15.701-37.461 23.211-74.368 36.437-93.44 9.856-13.227 22.613-28.245 29.611-43.264 3.883-9.813 5.205-20.181 9.259-30.549 9.301-25.387 18.005-53.675 30.208-77.312 6.485-12.117 13.312-24.832 21.461-35.797 4.651-6.443 12.8-9.216 14.507-19.627-8.107-11.52-8.704-28.8-13.355-43.264-20.907-65.195-12.8-145.92 16.853-193.92 9.301-14.421 31.189-46.165 60.928-34.048 26.155 10.411 20.309 43.264 27.861 72.107 1.749 6.912 0.597 11.52 4.053 16.171v-1.28l23.808-47.915c18.005-28.245 49.365-57.685 75.477-77.312 13.909-10.368 24.917-28.245 42.325-34.56v1.707h-1.109c-3.499 5.163-8.747 7.509-13.397 11.52-10.783 10.521-20.677 21.836-29.63 33.89l-0.536 0.755c-22.755 30.376-44.331 64.736-63.033 100.825l-1.949 4.135c-9.301 17.92-17.451 37.504-24.96 55.381-3.541 6.912-3.541 17.323-9.301 20.779-8.747-12.672-21.461-23.68-27.904-39.253-11.008-24.747-12.16-55.339-16.213-87.083-2.347-0.597-1.28 0-2.347-1.28-18.56 4.565-24.96 23.637-31.915 39.765-17.408 40.96-20.309 106.709-5.248 154.027 4.096 12.117 21.504 50.219 14.549 61.739-3.499 10.965-15.104 17.28-21.504 25.941-7.457 10.616-14.434 22.726-20.304 35.451l-0.602 1.456c-13.867 32.341-20.864 68.096-35.968 100.395-6.955 15.019-19.157 30.592-29.013 44.416-11.051 15.573-23.211 26.539-31.915 45.013-2.901 6.443-6.955 16.725-2.304 23.637 1.109 4.608 3.456 6.485 8.107 7.509 7.509 6.443 29.013-1.707 36.565-5.163 21.461-8.661 39.467-16.725 57.472-28.843 8.107-5.76 16.811-16.725 27.307-19.627h12.16c18.603-4.053 39.467-1.28 56.875-6.485 30.72-9.813 58.624-24.192 83.627-39.808 76.749-49.027 138.216-115.688 179.734-194.492l1.344-2.799c6.955-13.269 9.813-25.387 16.213-39.253 12.245-28.245 27.307-57.088 39.509-84.779 12.203-27.136 23.808-54.827 41.216-77.312 8.704-12.117 43.52-18.475 59.179-24.832 11.605-5.12 29.611-9.813 40.107-16.128 19.669-12.117 39.424-25.984 57.984-39.253 9.259-6.912 38.315-21.333 40.064-32.853zM279.381 700.246c-0.178 0.001-0.389 0.002-0.601 0.002-8.23 0-16.212-1.059-23.818-3.048l0.653 0.145v-1.28h1.152c4.651-9.216 12.8-15.573 18.56-23.68l13.355-27.691 1.152 1.28c8.107 5.803 12.203 15.019 12.203 28.843-3.499 4.053-4.053 8.107-6.955 12.117-3.499 5.76-11.051 8.661-15.701 13.269z" />
<glyph unicode="&#xe90e;" glyph-name="php" d="M128 298.667v256h149.333q25.6 0 44.8-19.2t19.2-44.8v-42.667q0-25.6-19.2-44.8t-44.8-19.2h-85.333v-85.333zM405.333 298.667v256h64v-85.333h85.333v85.333h64v-256h-64v106.667h-85.333v-106.667zM704 298.667v256h149.333q25.6 0 44.8-19.2t19.2-44.8v-42.667q0-25.6-19.2-44.8t-44.8-19.2h-85.333v-85.333zM192 448h85.333v42.667h-85.333zM768 448h85.333v42.667h-85.333z" />
<glyph unicode="&#xe90f;" glyph-name="graphql" d="M512 709.547l-18.773 2.56-237.227-409.173c10.24-8.96 17.067-20.48 20.053-33.28h471.893c2.987 12.8 9.813 24.32 20.053 33.28l-237.227 409.173zM281.6 233.387l182.613-107.947c12.373 11.52 29.44 18.347 47.787 18.347s35.413-6.827 47.787-18.347l182.613 107.947zM512-0c-39.588 0-71.68 32.092-71.68 71.68v0l3.84 23.893-183.467 108.8c-13.227-15.36-32.427-24.747-54.187-24.747-39.588 0-71.68 32.092-71.68 71.68v0c0 33.707 22.613 61.867 53.76 69.973v218.027c-35.413 4.693-62.72 34.987-62.72 71.68 0 39.588 32.092 71.68 71.68 71.68v0c23.467 0 43.947-11.093 57.173-28.16l188.16 107.947-2.56 19.2c0 39.68 32 71.68 71.68 71.68s71.68-32 71.68-71.68l-2.56-19.2 188.16-107.947c13.227 17.067 33.707 28.16 57.173 28.16 39.588 0 71.68-32.092 71.68-71.68v0c0-36.693-27.307-66.987-62.72-71.68v-218.027c31.147-8.107 53.76-36.267 53.76-69.973 0-39.588-32.092-71.68-71.68-71.68v0c-21.76 0-40.96 9.387-54.187 24.747l-183.467-108.8 3.84-23.893c0-39.588-32.092-71.68-71.68-71.68v0zM460.8 731.307l-192-110.080 0.853-10.24c0-30.293-18.773-56.32-45.227-66.987l1.28-224zM563.2 731.307l235.093-411.307 1.28 224c-26.453 10.667-45.227 36.693-45.227 66.987l0.853 10.24z" />
<glyph unicode="&#xe910;" glyph-name="wordpress" d="M512 853.334c-235.093 0-426.667-191.573-426.667-426.667s191.573-426.667 426.667-426.667 426.667 191.573 426.667 426.667-191.573 426.667-426.667 426.667zM128.427 426.667c0 55.467 11.947 108.373 33.28 156.16l183.040-501.333c-128 62.293-216.32 193.28-216.32 345.173zM512 43.094c-37.547 0-73.813 5.547-108.373 15.787l115.2 334.507 117.76-322.987c0.853-1.707 1.707-3.84 2.56-5.12-39.68-14.507-82.347-22.187-127.147-22.187zM564.907 606.72c23.040 1.28 43.947 3.84 43.947 3.84 20.48 2.56 18.347 32.853-2.56 31.573 0 0-62.293-4.693-102.4-4.693-37.547 0-101.12 4.693-101.12 4.693-20.48 0.853-23.040-30.72-2.133-32 0 0 19.627-2.56 40.107-3.84l59.733-163.84-84.053-251.733-139.52 416c23.040 0.853 43.947 3.413 43.947 3.413 20.48 2.56 18.347 32.853-2.56 31.573 0 0-62.293-4.693-102.4-4.693-7.253 0-15.787 0-24.747 0.427 69.12 104.107 186.88 172.8 320.853 172.8 99.84 0 190.72-37.973 258.987-100.693-1.707 0-3.413 0.427-5.12 0.427-37.547 0-64.427-32.853-64.427-68.267 0-31.573 18.347-58.453 37.547-90.027 14.507-25.6 31.573-58.453 31.573-105.813 0-32.853-12.8-70.827-29.013-124.16l-38.4-128zM848.64 610.56c29.54-53.085 46.931-116.436 46.931-183.849 0-140.793-75.856-263.869-188.929-330.588l-1.789-0.976 117.333 338.773c21.76 54.613 29.013 98.56 29.013 137.387 0 14.080-0.853 27.307-2.56 39.253z" />
<glyph unicode="&#xe911;" glyph-name="git" d="M552.747 900.566c-10.425 10.434-24.832 16.888-40.747 16.888s-30.321-6.454-40.746-16.888l-119.68-119.766c9.344-8.875 18.347-17.493 23.040-22.187l96-96c12.102 5.914 26.333 9.373 41.373 9.373 53.019 0 96-42.981 96-96 0-15.039-3.458-29.271-9.623-41.942l0.25 0.57 53.333-53.333c12.107 5.92 26.345 9.382 41.392 9.382 53.019 0 96-42.981 96-96s-42.981-96-96-96c-53.019 0-96 42.981-96 96 0 15.047 3.462 29.285 9.632 41.961l-0.25-0.57-53.333 53.248c-2.499-1.246-5.6-2.544-8.788-3.658l-0.599-0.182v-160.299c37.629-13.579 64.043-48.982 64.043-90.555 0-53.043-43-96.043-96.043-96.043s-96.043 43-96.043 96.043c0 41.573 26.413 76.976 63.374 90.344l0.669 0.211v160.256c-37.617 13.57-64.023 48.96-64.023 90.518 0 15.069 3.472 29.328 9.66 42.019l-0.25-0.569-96 96c-3.157 3.115-12.373 12.757-22.187 23.083l-269.056-269.056c-10.434-10.425-16.888-24.832-16.888-40.747s6.454-30.321 16.888-40.746l433.11-433.067c10.425-10.434 24.832-16.888 40.747-16.888s30.321 6.454 40.746 16.888v0l433.109 433.067c10.434 10.425 16.888 24.832 16.888 40.747s-6.454 30.321-16.888 40.746v0zM512 266.667c-17.673 0-32-14.327-32-32s14.327-32 32-32v0c17.673 0 32 14.327 32 32s-14.327 32-32 32v0zM544 576c0-17.673-14.327-32-32-32s-32 14.327-32 32v0c0 17.673 14.327 32 32 32s32-14.327 32-32v0zM661.333 394.667c0 17.673 14.327 32 32 32s32-14.327 32-32v0c0-17.673-14.327-32-32-32s-32 14.327-32 32v0z" />
<glyph unicode="&#xe912;" d="M497.792 853.334h-142.251c-78.551 0-142.229-63.678-142.229-142.229s63.678-142.229 142.229-142.229h142.251z" />
<glyph unicode="&#xe913;" d="M497.792 568.875h-142.251c-78.539 0-142.208-63.669-142.208-142.208s63.669-142.208 142.208-142.208v0h142.251z" />
<glyph unicode="&#xe914;" d="M782.208 426.667c0-78.551-63.678-142.229-142.229-142.229s-142.229 63.678-142.229 142.229v0c0 78.551 63.678 142.229 142.229 142.229s142.229-63.678 142.229-142.229v0z" />
<glyph unicode="&#xe915;" d="M355.541 284.416h142.251v-142.208c-0.024-78.521-63.684-142.165-142.208-142.165-78.539 0-142.208 63.669-142.208 142.208 0 78.524 63.644 142.184 142.163 142.208h0.002z" />
<glyph unicode="&#xe916;" d="M497.749 853.334h142.208c78.551 0 142.229-63.678 142.229-142.229s-63.678-142.229-142.229-142.229h-142.208z" />
<glyph unicode="&#xe917;" glyph-name="gsap" d="M574.848-83.157c-13.344 2.336-27.168 8.672-35.008 15.68-5.146 5.374-8.361 12.634-8.512 20.643v0.029c0 7.84 4 18.848 10.336 29.824q5.76 9.28 8.992 19.84c1.344 4.832 4.16 12.672 6.336 17.664l3.84 9.152 0.992 61.152c0.512 33.824 1.504 65.152 2.336 70.016 2.176 14.016 5.824 27.68 10.656 40.992l3.68 8.832-5.344 3.168c-4.832 3.008-8.832 7.168-24.672 26.016-19.488 23.008-45.152 35.68-81.504 40q-17.792 1.76-35.84 2.496c-53.344 2.496-83.84 13.664-111.328 40.672-20.512 20.16-31.168 43.68-35.488 78.336-5.824 46.848-12.32 70.848-24.32 90.336-3.193 5.082-6.547 9.494-10.249 13.586l0.073-0.082-4.832 4.832-10.656-6.848c-5.824-3.84-14.016-8.672-18.016-10.848q-19.968-11.040-38.176-24.32c-29.824-21.664-62.336-48.832-80.16-66.656-8-8-12.16-11.488-14.016-11.168-12.16 1.824-2.848 54.496 16.992 94.176 25.344 51.168 68 98.336 117.344 130.176 40.512 26.176 106.016 62.176 136.32 74.848 53.824 22.496 123.488 46.848 171.168 59.84 10.016 2.848 16.16 5.344 20.32 8.16 9.344 6.496 18.496 9.664 28.992 9.824 8.832 0.16 9.664 0.32 18.176 6.016 10.016 6.496 12.992 6.848 23.008 3.328l6.496-2.336 8 5.504 8 5.344 11.488-0.16c8.832-0.16 12.832 0.16 16.672 1.824 4.832 2.176 4.992 2.496 6.336 10.496 3.008 17.344 3.328 26.016 1.504 36.512-2.336 13.824-2.656 67.488-0.32 78.016 2.496 11.328 4.16 13.664 12.672 17.824 12.672 6.176 22.176 8 44 8 26.656 0 40.16-3.68 50.176-13.344 8.992-8.672 10.496-28.992 5.824-76.672-2.848-27.488-3.168-35.168-2.336-53.152 0.32-11.488 1.152-22.336 1.504-23.84 0.672-2.848 1.344-3.008 11.008-3.168 9.504-0.16 11.168-0.672 20.16-5.344 8.672-4.512 15.168-10.016 16.512-14.016q0.288-1.248 4.32 0c5.152 1.504 9.664-0.16 13.344-4.672 2.176-2.848 3.488-3.328 8.512-3.328 6.848 0 9.344-1.664 15.008-10.016 2.671-3.693 6.214-6.599 10.334-8.447l0.162-0.065c9.344-4.672 22.016-17.664 26.848-28 7.488-15.328 8.992-33.152 4.32-49.152-1.664-6.016-1.664-6.176 1.824-12 7.328-12.512 10.016-27.84 7.008-40.832l-1.664-7.68 4.992-4.992c24.832-24.832 21.152-65.344-9.152-101.504-3.236-3.916-6.077-8.354-8.346-13.117l-0.166-0.387c-5.824-15.488-12.512-26.336-21.152-35.328l-8.832-8.992h-8.992c-8.992 0-21.664 3.008-29.344 7.008-3.168 1.664-3.328 1.664-2.656-0.32 2.016-7.328 7.008-37.152 8.672-53.664 2.656-25.344 1.824-62.176-1.664-78.016-2.795-12.653-7.166-23.845-12.987-34.107l0.315 0.603c-3.328-5.344-3.488-6.496-2.848-12.992 0.992-9.152-1.152-24.512-4.832-34.656-4.512-11.84-6.176-17.344-7.168-23.328-0.832-5.152-0.832-5.152 2.848-5.152 4.832 0 7.488-2.848 7.488-8.512 0-2.496-2.176-16-4.832-29.824-7.328-38.848-7.84-43.168-7.84-80.832-0.16-38.848-0.16-38.496 8.672-44.32l19.84-12.832c15.68-10.568 33.639-19.986 52.62-27.359l1.876-0.641c27.84-11.008 31.68-13.824 31.68-23.168 0-4.16-0.832-5.664-4.32-8.992-10.656-10.336-31.68-12.672-74.016-8.16-19.747 1.951-42.778 3.1-66.064 3.168h-0.112c-58.336 0.832-66.848 2.848-74.496 17.344-4.32 8.32-3.488 19.168 2.496 36.992q3.968 11.744 7.008 24c4 19.328 1.344 42.336-8 68.32l-8 22.176c-7.84 22.496-12.16 63.68-7.488 72.992 0.832 1.824 2.336 2.176 6.336 2.016l4.992-0.512 4.16 8.672c3.168 6.848 6.656 11.328 16.16 20.832l12.16 12.16-0.672 7.84c-0.512 7.488-10.336 43.84-11.68 43.68-0.512 0-3.168-3.68-6.176-8.32-7.328-11.008-23.488-28-32.672-34.176-4-2.656-7.328-5.824-7.328-6.848-0.16-4.512-4-13.344-8.672-19.488-4.512-6.016-4.832-7.008-4.16-12.32 1.152-7.84-1.344-32.992-4.32-46.176-3.038-10.87-6.79-20.272-11.403-29.156l0.395 0.836c-11.488-23.84-20.16-45.152-22.336-55.008-1.411-8.185-2.486-18.052-2.984-28.070l-0.024-0.602c-0.512-11.328-1.664-22.336-2.496-24.672-1.152-3.168-1.152-5.664-0.16-10.496 0.832-3.488 1.344-11.328 1.152-17.504-0.16-8.512 0.512-14.016 3.008-24 4.32-16.992 5.152-27.68 3.168-34.016-1.344-4-2.656-5.504-7.168-7.68-10.016-5.152-38.336-8-53.664-5.344zM615.328-69.493c5.824 1.664 10.848 6.656 10.848 11.168 0 2.016-1.664 7.84-3.68 12.992-4 9.824-10.848 35.84-10.848 40.16 0 2.176 0.16 2.336 3.488 0.512l3.68-2.016v4.672c-0.579 4.737-1.578 9.024-2.982 13.122l0.134-0.45c-3.168 9.504-3.488 9.664-23.68 10.848l-13.664 0.672-4.992-4.832c-2.665-2.748-5.034-5.809-7.040-9.116l-0.128-0.228c-2.176-4.32-3.008-10.848-1.664-12.32 0.32-0.512 3.68 0 7.328 0.832 1.948 0.578 4.219 0.988 6.558 1.147l0.098 0.005c0-0.16-3.68-3.168-8.32-6.336-20-15.008-27.008-24.16-27.008-35.84 0-12.16 11.488-21.664 29.504-24.512 12.32-1.824 36.32-2.336 42.336-0.512zM886.496-49.653c4.992 6.016 4.32 12.16-2.016 19.168q-5.504 5.568-12.512 9.344c-7.008 3.776-9.344 5.344-14.016 8.32-6.927 4.599-15.43 9.682-24.156 14.407l-1.86 0.921q-11.52 6.208-22.496 13.152l-3.008 2.336v45.824c0 45.152-0.16 45.824-2.496 45.152-11.68-3.168-31.008-4.672-55.488-4.16l-26.496 0.32 3.84-9.344c7.168-17.664 10.848-41.344 10.848-68.512 0-10.176-0.672-13.824-3.168-20.992q-1.952-5.248-3.68-10.496c-0.512-1.504 1.344-2.656 8.16-4.672 4.992-1.504 12.32-3.008 16.512-3.488l7.68-0.832-0.832-7.68c-0.832-8.672 0.16-17.824 2.336-20.672 1.344-1.664 6.336-2.336 29.504-3.328 17.504-0.832 36.512-2.656 51.488-4.832 12.992-2.016 27.008-3.68 31.168-3.68 7.008-0.16 7.68 0.16 10.656 3.68zM619.68 28.331c0.672 0.512 1.664 9.504 2.016 20.16 1.344 29.824 2.496 34.176 17.504 67.84 12.32 27.488 18.848 53.152 18.336 71.328l-0.32 10.848-4.672-4.512c-9.664-9.664-3.008 5.504 8.512 19.008 8.672 10.336 11.68 16 12.992 25.152 0.672 3.68 2.016 5.504 7.68 9.824 20.889 15.932 37.087 37.008 46.825 61.365l0.343 0.971c2.336 6.016 8.32 26.496 13.344 45.504 9.344 35.168 14.336 50.336 18.848 56.832q2.496 3.808 2.016 1.344c-2.141-7.381-4.118-16.566-5.514-25.942l-0.15-1.226c-1.344-8.16-3.84-24.16-5.504-35.328-3.168-22.848-6.496-37.504-11.008-48.832l-3.008-7.68 8-20.672c8.32-21.152 12.16-36.512 12.832-51.328l0.512-8.32-6.496-1.344c-8.825-1.598-16.298-6.453-21.278-13.25l-0.066-0.094c-5.664-8.16-8.832-14.848-7.328-16.32 0.672-0.672 8.832-2.176 18.176-3.328 14.496-1.664 20-1.664 39.168-0.512q12.48 0.512 24.672 2.336c1.824 0.672 3.68 4.32 6.656 13.824 6.848 21.824 8.16 29.504 7.328 44.832l-0.672 13.504 3.488 4.512c8.16 10.336 14.496 28.992 17.152 50.848 3.168 26.656-2.656 82.496-13.504 130.496-5.152 22.848-7.328 36.512-7.328 46.496v8.832l-8.16-0.832c-29.344-3.168-64.832-2.336-86.496 2.176-11.84 2.336-41.664 11.168-48.16 14.016l-5.152 2.336-0.672-5.824q-0.704-4.704-1.664-9.664c-0.992-3.488-0.672-4.32 5.504-10.336 7.68-7.84 10.016-11.84 10.016-17.152 0-3.328-1.824-6.016-11.168-15.68-6.624-7.045-13.881-13.348-21.729-18.87l-0.447-0.298-10.848-7.328-4.672-16.16c-16.672-59.168-19.84-112.992-8.832-151.488l2.656-9.664-5.344-6.656c-20-25.152-31.84-44.32-33.664-55.008-1.395-6.995-2.668-12.269-4.102-17.478l0.422 1.798c-4.32-16.512-7.68-40.672-9.152-66.848-1.253-26.818-2.799-49.567-4.781-72.191l0.461 6.527-0.832-6.496 8.32-2.496c4.672-1.504 11.68-3.168 15.68-3.84 7.488-1.152 21.344-0.832 23.488 0.32zM781.504 120.011c12.992 0.832 24.832 2.848 27.168 4.832 0.992 0.672 2.176 4.16 2.496 7.68l0.832 6.336-10.336-2.336c-8.16-1.664-16.32-2.656-24.512-3.328-19.68-0.832-39.488-0.32-59.008 1.664-6.496 0.992-6.496 0.992-4.512-7.488 1.664-6.336 2.016-6.656 19.008-7.84 11.328-0.992 27.168-0.832 48.832 0.512zM770.656 149.003c16.992 1.504 38.176 5.152 42.336 7.328 1.344 0.672 2.496 3.168 3.008 6.016l1.504 8.832 0.832 4.16-4.16-0.832c-18.496-3.84-32.512-4.992-60.512-4.992-27.328 0-30.496 0.16-37.664 2.656-2.546 1.117-5.502 1.841-8.606 2.013l-0.066 0.003c-1.152-0.672-1.344-10.176-0.32-16.832 0.672-4 1.344-4.672 5.344-5.824 12.672-3.488 34.016-4.32 58.336-2.336zM461.344 299.339c42.656 12.32 98.496 48.512 144.16 93.824 14.848 14.848 16.672 16.832 18.656 23.488l2.656 8.512c0.32 0.672-2.336 1.824-5.824 2.656-9.152 2.176-16.16 7.488-16.16 12.32 0 2.848-1.664 5.664-6.496 10.848-7.84 8.832-9.824 12.672-10.656 21.152l-0.672 6.848-9.344 6.656c-5.344 3.84-24 14.176-43.84 24.16-18.389 8.989-32.903 16.978-47.040 25.526l2.72-1.526c-16.672 11.168-27.84 24.512-34.176 40.32-1.152 3.168-2.656 5.824-3.168 5.824-1.344 0-38.848-36.16-54.848-53.152-39.488-41.664-66.656-77.824-83.84-111.328-4.32-8.32-8.992-18.176-10.336-21.824l-2.496-6.656 3.008-11.168c1.824-6.016 5.664-15.84 8.672-21.664 10.496-20.672 23.008-33.152 43.68-43.328 22.176-11.008 41.824-14.848 74.656-14.336 17.664 0.16 22.848 0.672 30.656 3.008zM124.672 445.515c28 24.832 66.656 52 114.016 80.16 31.008 18.496 150.848 78.496 206.016 103.008 10.016 4.512 19.008 8.672 20 9.152 0.992 0.672 3.84 7.84 6.496 15.84 11.68 36.992 17.504 44.32 38.656 49.152 2.656 0.672 3.328 1.504 3.328 4.16 0 4.832 3.328 16 6.176 20.992 2.176 3.84 2.176 4 0.32 3.488-1.152-0.32-8.16-2.336-15.488-4.512-101.664-29.344-190.496-68.32-267.168-116.992-81.824-52-128.992-114.336-142.656-188.992l-0.992-5.504 10.016 9.824c5.344 5.504 15.008 14.496 21.344 20zM878.848 431.339c8.16 4.16 20.832 23.328 25.504 38.496 1.344 5.344 4 10.336 7.84 14.496 12.32 13.664 22.496 38.496 22.656 55.488 0 26.496-15.008 36.672-36.832 25.344-2.848-1.344-5.152-2.336-5.504-2.016-1.152 1.152 4.992 7.168 12.512 11.84 9.824 6.496 11.68 10.336 11.68 24.16 0.002 0.179 0.003 0.391 0.003 0.603 0 11.48-3.556 22.129-9.626 30.906l0.119-0.181c-3.008 4.512-4.16 7.488-3.68 9.344l3.008 11.168c4.16 14.848 2.656 31.84-3.84 42.656-9.664 16.32-21.504 24.32-38.016 25.664l-9.664 0.672 5.664-6.336c16.832-18.176 24.992-40.992 21.664-60.512-1.664-10.016-3.168-12-12.832-15.84l-5.664-2.336 0.672-7.68c1.152-12.512-0.992-21.664-8.992-38.496-4-8.512-7.008-16.16-6.656-16.992 0.992-2.848 12-8.16 20.672-10.336l8.512-2.016-5.344-1.824c-7.008-2.176-8.512-5.344-8.512-16.832 0-10.496 1.504-14.848 9.152-26.336 3.488-4.992 5.824-10.176 6.176-13.152 0.672-4.672 0.512-4.992-3.328-6.336-3.919-1.121-8.478-1.897-13.173-2.168l-0.171-0.008c-15.68-0.992-16.832-1.504-23.84-8.16-6.336-6.016-6.496-6.336-6.496-12.992 0-9.152 3.488-27.68 5.664-30.176 2.848-3.008 18.656-10.848 24.832-12 1.658-0.44 3.562-0.692 5.525-0.692 3.769 0 7.32 0.931 10.437 2.575l-0.122-0.059zM648 443.819c10.176 8 18.176 16 22.656 22.848 2.848 4.16 3.008 4.992 1.664 8.512-2.336 5.344-17.664 19.168-26.176 23.328-5.177 2.419-11.184 4.225-17.485 5.113l-0.339 0.039-10.496 1.344-6.496 8.16c-13.504 16.672-20.992 29.664-31.68 54.848-9.344 21.344-17.504 33.824-30.496 46.176-5.344 4.992-9.152 9.152-8.832 9.152 0.672 0 7.008-3.168 14.336-7.008 12.16-6.496 13.664-7.008 19.168-6.176 19.84 2.336 37.344 25.152 43.68 57.152 1.824 8.992 5.504 18.176 9.344 23.68 0.16 0.16 7.84-4.832 16.832-11.328 22.848-16.16 27.84-18.656 40.832-19.168 8.512-0.32 13.344 0.32 28.672 4 32.672 8 68 11.168 89.504 8.32 12.16-1.664 29.664-7.008 42.656-13.152 12.832-6.016 15.328-6.336 19.488-2.656 3.488 3.008 3.488 3.488 3.488 14.656-0.16 16.512-6.176 34.336-15.328 44.992-4.672 5.504-17.824 14.496-30.848 21.344-9.308 4.797-13.831 7.287-18.331 9.814l4.507-2.326c-6.176 3.68-13.152 3.168-32.16-1.824-22.016-5.664-27.84-5.664-52.992 0.832-21.344 5.344-22.656 5.504-43.68 2.176-11.168-1.664-39.168-0.672-48.512 1.824-4.672 1.344-9.344 2.656-13.824 4.32-8.16 3.168-22.336 3.68-35.168 1.344-25.504-4.512-44.832-18.336-51.84-37.152-3.68-9.504-3.168-14.016 1.664-16.992 7.68-4.832 17.824-18.016 17.824-23.168 0-0.32-2.496 1.824-5.344 4.832-7.168 7.488-13.664 10.848-21.344 10.848-10.395-0.266-19.281-6.464-23.42-15.325l-0.068-0.163c-1.899-4.75-3.839-10.756-5.422-16.906l-0.242-1.11c-4.672-16.992-8.832-26.016-17.664-38.016-7.84-10.848-8.992-15.68-6.176-27.84 7.008-30.656 19.168-43.008 69.984-71.84 26.656-15.168 40.32-23.68 50.336-31.168 7.68-5.664 7.84-6.016 7.168-10.336-1.504-10.016 4.832-20.832 17.344-29.664 3.168-2.176 5.152-4.512 5.152-6.176 0-3.008 8.512-7.168 14.656-7.168 3.488 0 6.176 1.504 13.344 7.008zM853.504 500.011c19.328-0.672 20.32 0.832 10.016 12.832-10.848 12.512-13.824 22.656-9.824 33.824l1.664 4.32-6.848 3.328c-2.336 1.152-4.672 2.336-7.008 3.168-1.152-4.512-2.336-8.832-3.328-13.344-2.496-10.176-5.504-36.512-5.664-47.68 0-0.992 1.664-0.672 4.512 1.152 4 2.336 6.016 2.656 16.512 2.336zM788.672 501.003c11.68 0.672 23.68 1.504 26.848 2.016l5.824 0.832 0.672 19.168c0.992 27.328 4.992 43.488 16.832 69.344 8.32 18.336 12 34.336 10.176 46.336-0.672 5.152-0.992 5.504-8 8.512-11.458 4.699-24.86 8.477-38.779 10.708l-1.061 0.14c-13.152 1.824-51.84 0.832-66.336-2.016-6.016-0.992-16.992-3.328-24.32-5.152-18.176-4.16-27.84-3.68-41.664 2.336-13.664 6.016-22.336 11.488-30.496 19.168-6.496 6.016-7.168 6.336-8.832 4.32-1.344-1.504-2.016-6.016-2.496-15.68-0.512-14.848-2.848-22.656-9.344-33.152-1.326-1.964-2.558-4.214-3.576-6.578l-0.104-0.27c0-0.512 4.992-6.336 11.168-12.672 21.344-22.176 31.84-27.84 48.672-26.656 5.504 0.512 9.344 0.32 9.344-0.32 0-1.344-10.848-9.824-15.328-12.16-2.176-1.152-2.656-2.336-2.336-4.832l2.656-17.504c1.504-10.016 2.656-14.656 4.16-16 4-3.328 24.672-14.016 37.664-19.328 16.992-6.848 26.336-9.344 39.328-10.496 16-1.344 16.32-1.344 39.328 0zM650.848 519.339c0.32 0.512-0.832 10.176-3.008 21.344-2.656 15.168-4.16 20.672-5.824 22.176-1.152 0.992-7.328 5.344-13.504 9.824-8.527 6.221-16.031 12.507-23.095 19.251l0.087-0.083-11.488 11.328-6.176-3.168-6.496-3.488c0.633-2.836 1.548-5.335 2.74-7.669l-0.084 0.181c1.824-4 5.504-13.824 8.16-21.824 7.008-20.832 12.512-30.848 26.336-48.992l5.152-6.848 9.824-1.504c5.504-0.832 11.008-2.016 12.512-2.496 2.336-0.992 2.656-0.512 3.328 4.832 0.32 2.336 0.832 4.832 1.504 7.168zM862.016 726.667c8.512 0.832 10.016 2.016 6.336 5.824-2.336 2.336-7.68 2.496-12 0.512-2.848-1.344-3.488-0.992-8 3.84-4.672 5.152-4.992 5.344-10.848 4.672-5.344-0.672-6.176-0.512-6.848 1.664-2.157 3.705-4.706 6.886-7.656 9.642l-0.024 0.022c-3.73 4.217-8.352 7.555-13.579 9.733l-0.245 0.091c-10.336 4-16.16 3.488-26.016-2.016-28.512-15.488-27.328-15.328-54.848-8.32-25.664 6.496-44.832 13.152-51.008 17.344-5.152 3.488-16.16 7.328-25.344 8.512-6.848 0.992-11.168-0.512-17.664-5.824l-3.488-2.848 3.168-5.504c4.32-7.68 3.84-8.16-2.656-2.496-7.008 5.824-15.328 9.824-20.672 10.016-3.84 0-15.168-4.992-16.512-7.168-0.512-0.672 3.008-1.504 7.68-1.824 4.832-0.512 11.488-2.176 16-4 11.68-4.992 17.664-6.656 28.32-7.68 11.68-1.152 32.832 0.16 35.328 2.176 1.344 1.152 4.992 1.344 12.672 0.672 10.176-0.672 14.336-1.664 38.496-8.16 14.016-3.84 23.84-3.488 40.512 0.992 7.68 2.176 17.344 4.32 21.344 4.832 6.848 0.672 8.16 0.32 18.848-4.512 16.992-7.68 26.016-12.512 31.008-16.992 4.992-4.32 5.664-4.32 17.664-3.328zM767.008 755.819l10.176 5.344-0.32 10.336q-0.32 10.72-0.832 21.152l-0.832 10.656-10.176-7.84c-6.016-4.672-11.84-8.16-14.336-8.672-7.328-1.344-43.488 0-46.848 1.824-4.632 3.431-8.72 7.042-12.478 10.972l-0.034 0.036-9.344 9.504-0.16-5.664c0-3.008-0.32-8.16-0.992-11.328-0.832-6.016-0.832-6.176 5.664-14.336 3.488-4.512 6.336-8.512 6.336-8.992 0-3.168 48.16-18.176 59.008-18.336 3.488 0 7.84 1.504 15.168 5.344zM747.68 793.675c12 2.336 17.824 11.008 22.336 32.992 4.672 23.68 7.008 60.832 4.832 76.672-2.016 14.336-18.016 20.672-48.512 19.68-19.008-0.672-26.848-2.496-33.344-8-4-3.328-4-3.68-5.824-19.488-3.328-30.336 1.664-73.504 10.336-89.664 4.16-7.84 7.84-10.656 15.488-12 8.672-1.504 27.168-1.504 34.656-0.16z" />
<glyph unicode="&#xe918;" glyph-name="sass" d="M512 853.334c235.641 0 426.667-191.025 426.667-426.667v0c0-235.641-191.025-426.667-426.667-426.667v0c-235.641 0-426.667 191.025-426.667 426.667v0c0 235.641 191.025 426.667 426.667 426.667v0zM426.667 284.587c6.827-23.040 5.973-44.373 0-64 0-2.133-1.707-4.267-2.56-7.253-0.853 0-1.707-2.987-2.987-5.12-4.693-10.24-11.52-20.053-19.627-28.587-24.747-27.307-60.16-37.547-74.24-29.013-16.213 9.387-7.253 47.787 20.907 78.080 30.72 32.427 75.093 53.76 75.093 53.76zM779.52 670.72c-19.2 75.947-145.067 100.693-263.68 58.453-70.827-25.173-147.627-64.427-202.667-116.053-65.28-61.44-75.947-114.773-71.68-136.96 14.507-78.507 122.88-130.133 167.253-168.107v-0.427c-12.8-6.4-108.373-54.613-131.413-104.107-23.040-52.053 4.267-89.6 21.333-94.72 57.173-15.36 114.773 12.373 145.493 58.88 29.867 44.373 27.733 101.973 14.507 130.987 17.92 4.267 38.827 6.4 65.28 3.413 75.093-8.96 89.6-55.467 86.613-75.093-2.56-19.627-18.347-30.293-23.467-33.707-5.12-2.987-6.827-4.267-6.4-6.827 0.427-3.413 2.987-3.413 7.253-2.56 6.4 1.28 39.68 15.787 40.96 52.053 1.707 46.080-42.24 97.28-119.893 96-32-0.853-52.053-3.84-66.56-9.387l-3.413 3.84c-48.213 51.2-136.96 87.467-133.12 156.587 1.28 25.173 9.813 90.88 170.667 171.093 131.413 65.707 236.8 47.787 255.147 7.253 26.027-56.747-56.32-162.987-192.853-178.347-52.053-5.973-79.787 14.507-86.613 21.76-7.253 7.253-8.107 8.533-10.667 7.253-4.693-2.987-1.707-9.813 0-14.080 3.84-10.667 20.907-28.587 49.067-38.827 25.173-8.107 86.613-12.8 160.427 15.787 82.773 32 147.627 121.173 128.427 195.84z" />
<glyph unicode="&#xe919;" glyph-name="typescript" d="M999.637 938.667h-975.317c0 0 0 0 0 0-13.432 0-24.32-10.888-24.32-24.32 0-0.015 0-0.030 0-0.045v0.002-975.317c0-0.013 0-0.028 0-0.043 0-13.432 10.888-24.32 24.32-24.32 0.015 0 0.030 0 0.045 0h975.315c0.013 0 0.028 0 0.043 0 13.432 0 24.32 10.888 24.32 24.32 0 0.015 0 0.030 0 0.045v-0.002 975.36c0 0 0 0 0 0 0 13.432-10.888 24.32-24.32 24.32-0.030 0-0.060 0-0.090 0h0.005zM609.536 391.424h-121.899v-379.221h-97.536v379.221h-121.899v84.011h341.333zM636.843 33.878v101.333s55.381-41.728 121.813-41.728 63.872 43.435 63.872 49.408c0 63.019-188.245 63.019-188.245 202.709 0 189.952 274.304 114.987 274.304 114.987l-3.413-90.283s-45.995 30.677-97.963 30.677-70.699-24.747-70.699-51.115c0-68.139 189.952-61.355 189.952-198.485 0-211.2-289.621-117.547-289.621-117.547z" />
<glyph unicode="&#xe91a;" glyph-name="nextjs" d="M512-0c-235.648 0-426.667 191.019-426.667 426.667s191.019 426.667 426.667 426.667 426.667-191.019 426.667-426.667-191.019-426.667-426.667-426.667zM682.667 597.334h-57.6v-170.667h57.6zM398.763 524.374l258.517-333.995 44.971 34.517-289.109 372.437h-71.808v-341.205h57.429z" />
<glyph unicode="&#xe91b;" glyph-name="react" d="M512 507.307c43.947 0 79.787-35.84 79.787-80.64 0-42.667-35.84-78.933-79.787-78.933s-79.787 36.267-79.787 78.933c0 44.8 35.84 80.64 79.787 80.64zM314.453 85.334c26.88-16.213 85.76 8.533 153.6 72.533-22.187 25.173-43.947 52.48-64.427 81.067-39.578 3.857-74.516 9.277-108.795 16.485l6.395-1.125c-21.76-91.307-13.653-154.027 13.227-168.96zM344.747 330.24l-12.373 21.76c-4.693-12.373-9.387-24.747-12.373-36.693 11.52-2.56 24.32-4.693 37.547-6.827zM623.787 362.667l34.56 64-34.56 64c-12.8 22.613-26.453 42.667-38.827 62.72-23.040 1.28-47.36 1.28-72.96 1.28s-49.92 0-72.96-1.28c-12.373-20.053-26.027-40.107-38.827-62.72l-34.56-64 34.56-64c12.8-22.613 26.453-42.667 38.827-62.72 23.040-1.28 47.36-1.28 72.96-1.28s49.92 0 72.96 1.28c12.373 20.053 26.027 40.107 38.827 62.72zM512 649.387c-8.107-9.387-16.64-19.2-25.173-30.72h50.347c-8.533 11.52-17.067 21.333-25.173 30.72zM512 203.947c8.107 9.387 16.64 19.2 25.173 30.72h-50.347c8.533-11.52 17.067-21.333 25.173-30.72zM709.12 768c-26.453 16.213-85.333-8.533-153.173-72.533 22.187-25.173 43.947-52.48 64.427-81.067 34.987-3.413 69.547-8.533 102.4-15.36 21.76 91.307 13.653 154.027-13.653 168.96zM679.253 523.094l12.373-21.76c4.693 12.373 9.387 24.747 12.373 36.693-11.52 2.56-24.32 4.693-37.547 6.827zM741.12 823.894c62.72-35.84 69.547-130.133 43.093-240.213 108.373-32 186.453-84.907 186.453-157.013s-78.080-125.013-186.453-157.013c26.453-110.080 19.627-204.373-43.093-240.213-62.293-35.84-147.2 5.12-229.12 83.2-81.92-78.080-166.827-119.040-229.547-83.2-62.293 35.84-69.12 130.133-42.667 240.213-108.373 32-186.453 84.907-186.453 157.013s78.080 125.013 186.453 157.013c-26.453 110.080-19.627 204.373 42.667 240.213 62.72 35.84 147.627-5.12 229.547-83.2 81.92 78.080 166.827 119.040 229.12 83.2zM728.747 426.667c14.507-32 27.307-64 37.973-96.427 89.6 26.88 139.947 65.28 139.947 96.427s-50.347 69.547-139.947 96.427c-10.667-32.427-23.467-64.427-37.973-96.427zM295.253 426.667c-14.507 32-27.307 64-37.973 96.427-89.6-26.88-139.947-65.28-139.947-96.427s50.347-69.547 139.947-96.427c10.667 32.427 23.467 64.427 37.973 96.427zM679.253 330.24l-12.8-21.76c13.227 2.133 26.027 4.267 37.547 6.827-2.987 11.947-7.68 24.32-12.373 36.693zM555.947 157.867c67.84-64 126.72-88.747 153.173-72.533 27.307 14.933 35.413 77.653 13.653 168.96-32.853-6.827-67.413-11.947-102.4-15.36-20.48-28.587-42.24-55.893-64.427-81.067zM344.747 523.094l12.8 21.76c-13.227-2.133-26.027-4.267-37.547-6.827 2.987-11.947 7.68-24.32 12.373-36.693zM468.053 695.467c-67.84 64-126.72 88.747-153.6 72.533-26.88-14.933-34.987-77.653-13.227-168.96 27.884 6.083 62.822 11.503 98.317 15.032l4.083 0.328c20.48 28.587 42.24 55.893 64.427 81.067z" />
<glyph unicode="&#xe91c;" glyph-name="nodejs" d="M512 859.734c-11.52 0-23.467-2.987-33.28-8.533l-317.44-183.467c-20.48-11.947-33.28-34.133-33.28-58.027v-366.080c0-23.893 12.8-46.080 33.28-58.027l83.2-47.787c40.533-19.627 54.187-20.053 72.96-20.053 59.733 0 94.293 36.267 94.293 99.413v361.387c0 5.12-4.267 9.387-9.387 9.387h-39.68c-5.547 0-9.813-4.267-9.813-9.387v-361.387c0-28.16-29.013-55.893-75.52-32.427l-87.467 49.92c-2.828 2.015-4.659 5.27-4.693 8.955v366.085c0 3.84 1.707 7.253 4.693 8.96l317.44 183.040c2.56 1.707 6.827 1.707 9.387 0l317.44-183.040c2.987-1.707 4.693-5.12 4.693-8.96v-366.080c0-3.413-1.707-6.827-4.693-8.96l-317.44-183.040c-2.56-1.707-6.827-1.707-9.813 0l-80.213 48.64c-3.413 1.28-6.827 1.707-8.96 0.427-22.613-12.8-26.88-15.36-47.787-21.76-5.12-1.707-13.227-4.693 2.987-13.653l105.813-62.72q15.36-8.96 33.28-8.96t33.28 8.96l317.44 183.040c20.48 11.947 33.28 34.133 33.28 58.027v366.080c0 23.893-12.8 46.080-33.28 58.027l-317.44 183.467c-9.813 5.547-21.333 8.533-33.28 8.533zM597.333 597.334c-90.453 0-144.64-37.973-144.64-101.973 0-68.693 53.76-88.747 140.8-97.28 103.68-10.24 111.787-25.6 111.787-46.080 0-35.413-28.587-50.347-95.147-50.347-84.48 0-102.4 20.907-108.8 62.72-0.938 4.398-4.778 7.653-9.384 7.68h-40.963c-5.12 0-8.96-3.84-8.96-9.387 0-52.907 29.013-116.907 168.107-116.907 100.267 0 157.867 39.68 157.867 108.8 0 68.693-46.080 86.613-143.787 99.84-98.56 12.8-108.373 19.627-108.373 42.667 0 19.2 8.533 44.8 81.493 44.8 64 0 89.173-14.080 98.987-58.027 0.853-4.267 4.693-7.253 8.96-7.253h41.387c2.133 0 4.693 0.853 6.4 2.987 1.707 1.707 2.987 4.267 2.133 6.827-5.973 75.947-56.32 110.933-157.867 110.933z" />
<glyph unicode="&#xe91d;" glyph-name="woocommerce" d="M868.8 563.467c-18.4 1.6-53.6-8-69.6-86.4 0-47.2 11.2-76 28.8-86.4 32.8-9.6 71.2 34.4 71.2 81.6 1.6 32.8 3.2 73.6-30.4 91.2zM930.4 732.267h-836.8c-52 0-93.6-41.6-93.6-92.8v-320c0-51.2 41.6-93.6 93.6-93.6h837.6c51.2 0 93.6 41.6 93.6 93.6v320c-0.8 51.2-42.4 92.8-94.4 92.8zM352 298.667s-55.2 72.8-68 128c-12.8 54.4-16 29.6-16 29.6s-44-99.2-89.6-162.4-68 31.2-68 31.2c-16 19.2-61.6 298.4-61.6 298.4 25.6 71.2 69.6 12.8 69.6 12.8l44-227.2s68 139.2 91.2 175.2c22.4 36 61.6 25.6 64.8-11.2 3.2-37.6 40.8-139.2 40.8-139.2 3.2 107.2 47.2 209.6 53.6 225.6s77.6 36 64.8-32.8c-31.2-76-61.6-236.8-53.6-324.8-21.6-66.4-72-3.2-72-3.2zM639.2 334.667c-20.8-9.6-98.4-63.2-153.6 56.8-34.4 120.8 42.4 209.6 42.4 209.6s100 85.6 168-28c55.2-124.8-36-228.8-56.8-238.4zM893.6 334.667c-20.8-9.6-98.4-63.2-153.6 56.8-34.4 120.8 42.4 209.6 42.4 209.6s100.8 86.4 168.8-27.2c55.2-125.6-36.8-229.6-57.6-239.2zM613.6 563.467c-18.4 1.6-53.6-8-69.6-86.4 0-47.2 11.2-76 28.8-86.4 32.8-9.6 71.2 34.4 71.2 81.6 2.4 32.8 4 73.6-30.4 91.2zM490.4 225.867l178.4-104.8-37.6 104.8-102.4 28.8z" />
<glyph unicode="&#xe91e;" glyph-name="linkedin" d="M810.667 810.667c47.128 0 85.333-38.205 85.333-85.333v0-597.333c0-47.128-38.205-85.333-85.333-85.333v0h-597.333c-47.128 0-85.333 38.205-85.333 85.333v0 597.333c0 47.128 38.205 85.333 85.333 85.333v0zM789.333 149.334v226.133c0 76.819-62.274 139.093-139.093 139.093v0c-36.267 0-78.507-22.187-98.987-55.467v47.36h-119.040v-357.12h119.040v210.347c0 32.853 26.453 59.733 59.307 59.733 32.99 0 59.733-26.744 59.733-59.733v0-210.347zM293.547 573.44c39.588 0 71.68 32.092 71.68 71.68v0c0 39.68-32 72.107-71.68 72.107-39.823 0-72.107-32.283-72.107-72.107v0c0-39.68 32.427-71.68 72.107-71.68zM352.853 149.334v357.12h-118.187v-357.12z" />
</font>
</defs>
</svg>
